<mxfile host="app.diagrams.net" modified="2023-11-15T06:34:02.979Z" agent="Mozilla/5.0 (Windows NT 10.0; Win64; x64) AppleWebKit/537.36 (KHTML, like Gecko) Chrome/119.0.0.0 Safari/537.36 Edg/119.0.0.0" etag="xc_zsItkoWjjlXfsCR1f" version="22.1.0" type="github">
  <diagram id="prtHgNgQTEPvFCAcTncT" name="Page-1">
    <mxGraphModel dx="1386" dy="747" grid="1" gridSize="10" guides="1" tooltips="1" connect="1" arrows="1" fold="1" page="1" pageScale="1" pageWidth="827" pageHeight="1169" math="0" shadow="0">
      <root>
        <mxCell id="0" />
        <mxCell id="1" parent="0" />
        <mxCell id="IzmlfqED56RzMS5ZcZuz-1" value="" style="rounded=0;whiteSpace=wrap;html=1;" vertex="1" parent="1">
          <mxGeometry x="718" y="1000" width="700" height="580" as="geometry" />
        </mxCell>
        <mxCell id="IzmlfqED56RzMS5ZcZuz-2" value="&lt;div style=&quot;text-align: left;&quot;&gt;&lt;br&gt;&lt;/div&gt;" style="rounded=1;whiteSpace=wrap;html=1;" vertex="1" parent="1">
          <mxGeometry x="933" y="1034" width="200" height="296" as="geometry" />
        </mxCell>
        <mxCell id="IzmlfqED56RzMS5ZcZuz-3" value="api-server" style="rounded=1;whiteSpace=wrap;html=1;" vertex="1" parent="1">
          <mxGeometry x="410" y="945" width="210" height="40" as="geometry" />
        </mxCell>
        <mxCell id="IzmlfqED56RzMS5ZcZuz-4" value="control manger" style="rounded=1;whiteSpace=wrap;html=1;" vertex="1" parent="1">
          <mxGeometry x="280" y="1025" width="90" height="40" as="geometry" />
        </mxCell>
        <mxCell id="IzmlfqED56RzMS5ZcZuz-5" value="&lt;font style=&quot;font-size: 14px;&quot;&gt;&amp;nbsp; &amp;nbsp; Schedule&lt;/font&gt;" style="rounded=1;whiteSpace=wrap;html=1;align=left;" vertex="1" parent="1">
          <mxGeometry x="430" y="1025" width="200" height="60" as="geometry" />
        </mxCell>
        <mxCell id="IzmlfqED56RzMS5ZcZuz-6" value="gpu-admission&lt;br&gt;schedule" style="rounded=1;whiteSpace=wrap;html=1;fillColor=#CCCCFF;" vertex="1" parent="1">
          <mxGeometry x="530" y="1035" width="90" height="40" as="geometry" />
        </mxCell>
        <mxCell id="IzmlfqED56RzMS5ZcZuz-7" value="etcd" style="shape=cylinder3;whiteSpace=wrap;html=1;boundedLbl=1;backgroundOutline=1;size=15;" vertex="1" parent="1">
          <mxGeometry x="280" y="935" width="100" height="50" as="geometry" />
        </mxCell>
        <mxCell id="IzmlfqED56RzMS5ZcZuz-8" value="&lt;font style=&quot;font-size: 18px;&quot;&gt;Master Node&lt;/font&gt;" style="text;html=1;strokeColor=none;fillColor=none;align=center;verticalAlign=middle;whiteSpace=wrap;rounded=0;" vertex="1" parent="1">
          <mxGeometry x="395" y="890" width="110" height="30" as="geometry" />
        </mxCell>
        <mxCell id="IzmlfqED56RzMS5ZcZuz-9" value="" style="endArrow=classic;html=1;rounded=0;exitX=0.75;exitY=0;exitDx=0;exitDy=0;" edge="1" parent="1" source="IzmlfqED56RzMS5ZcZuz-4">
          <mxGeometry width="50" height="50" relative="1" as="geometry">
            <mxPoint x="350" y="1020" as="sourcePoint" />
            <mxPoint x="410" y="970" as="targetPoint" />
          </mxGeometry>
        </mxCell>
        <mxCell id="IzmlfqED56RzMS5ZcZuz-10" value="" style="endArrow=classic;html=1;rounded=0;entryX=0.04;entryY=1.026;entryDx=0;entryDy=0;entryPerimeter=0;exitX=0.398;exitY=-0.046;exitDx=0;exitDy=0;exitPerimeter=0;" edge="1" parent="1" target="IzmlfqED56RzMS5ZcZuz-3">
          <mxGeometry width="50" height="50" relative="1" as="geometry">
            <mxPoint x="419.29999999999995" y="1093.62" as="sourcePoint" />
            <mxPoint x="430" y="1000" as="targetPoint" />
          </mxGeometry>
        </mxCell>
        <mxCell id="IzmlfqED56RzMS5ZcZuz-11" value="" style="endArrow=classic;html=1;rounded=0;exitX=0.429;exitY=0.006;exitDx=0;exitDy=0;exitPerimeter=0;entryX=0.5;entryY=1;entryDx=0;entryDy=0;" edge="1" parent="1" source="IzmlfqED56RzMS5ZcZuz-5" target="IzmlfqED56RzMS5ZcZuz-3">
          <mxGeometry width="50" height="50" relative="1" as="geometry">
            <mxPoint x="429" y="1104" as="sourcePoint" />
            <mxPoint x="428" y="996" as="targetPoint" />
          </mxGeometry>
        </mxCell>
        <mxCell id="IzmlfqED56RzMS5ZcZuz-12" value="" style="rounded=0;whiteSpace=wrap;html=1;" vertex="1" parent="1">
          <mxGeometry x="260" y="920" width="380" height="180" as="geometry" />
        </mxCell>
        <mxCell id="IzmlfqED56RzMS5ZcZuz-13" style="edgeStyle=orthogonalEdgeStyle;rounded=0;orthogonalLoop=1;jettySize=auto;html=1;entryX=0;entryY=0.5;entryDx=0;entryDy=0;" edge="1" parent="1" source="IzmlfqED56RzMS5ZcZuz-14" target="IzmlfqED56RzMS5ZcZuz-32">
          <mxGeometry relative="1" as="geometry" />
        </mxCell>
        <mxCell id="IzmlfqED56RzMS5ZcZuz-14" value="api-server" style="rounded=1;whiteSpace=wrap;html=1;" vertex="1" parent="1">
          <mxGeometry x="410" y="945" width="210" height="40" as="geometry" />
        </mxCell>
        <mxCell id="IzmlfqED56RzMS5ZcZuz-15" value="control manger" style="rounded=1;whiteSpace=wrap;html=1;" vertex="1" parent="1">
          <mxGeometry x="280" y="1035.5" width="90" height="40" as="geometry" />
        </mxCell>
        <mxCell id="IzmlfqED56RzMS5ZcZuz-16" value="&lt;font style=&quot;font-size: 14px;&quot;&gt;&amp;nbsp; &amp;nbsp; Schedule&lt;/font&gt;" style="rounded=1;whiteSpace=wrap;html=1;align=left;" vertex="1" parent="1">
          <mxGeometry x="430" y="1025" width="200" height="60" as="geometry" />
        </mxCell>
        <mxCell id="IzmlfqED56RzMS5ZcZuz-17" value="Computility-Device schedule" style="rounded=1;whiteSpace=wrap;html=1;fillColor=#CCCCFF;" vertex="1" parent="1">
          <mxGeometry x="520" y="1035" width="100" height="40" as="geometry" />
        </mxCell>
        <mxCell id="IzmlfqED56RzMS5ZcZuz-18" value="etcd" style="shape=cylinder3;whiteSpace=wrap;html=1;boundedLbl=1;backgroundOutline=1;size=15;" vertex="1" parent="1">
          <mxGeometry x="280" y="937.5" width="100" height="55" as="geometry" />
        </mxCell>
        <mxCell id="IzmlfqED56RzMS5ZcZuz-19" value="&lt;font style=&quot;font-size: 18px;&quot;&gt;Master Node&lt;/font&gt;" style="text;html=1;strokeColor=none;fillColor=none;align=center;verticalAlign=middle;whiteSpace=wrap;rounded=0;" vertex="1" parent="1">
          <mxGeometry x="395" y="890" width="110" height="30" as="geometry" />
        </mxCell>
        <mxCell id="IzmlfqED56RzMS5ZcZuz-20" value="" style="endArrow=classic;html=1;rounded=0;exitX=0.75;exitY=0;exitDx=0;exitDy=0;entryX=0;entryY=0.875;entryDx=0;entryDy=0;entryPerimeter=0;" edge="1" parent="1" source="IzmlfqED56RzMS5ZcZuz-15" target="IzmlfqED56RzMS5ZcZuz-14">
          <mxGeometry width="50" height="50" relative="1" as="geometry">
            <mxPoint x="350" y="1020" as="sourcePoint" />
            <mxPoint x="410" y="970" as="targetPoint" />
          </mxGeometry>
        </mxCell>
        <mxCell id="IzmlfqED56RzMS5ZcZuz-21" value="" style="endArrow=classic;html=1;rounded=0;exitX=0.429;exitY=0.006;exitDx=0;exitDy=0;exitPerimeter=0;entryX=0.5;entryY=1;entryDx=0;entryDy=0;" edge="1" parent="1" source="IzmlfqED56RzMS5ZcZuz-16" target="IzmlfqED56RzMS5ZcZuz-14">
          <mxGeometry width="50" height="50" relative="1" as="geometry">
            <mxPoint x="429" y="1104" as="sourcePoint" />
            <mxPoint x="428" y="996" as="targetPoint" />
          </mxGeometry>
        </mxCell>
        <mxCell id="IzmlfqED56RzMS5ZcZuz-22" value="GPU/NPU" style="rounded=1;whiteSpace=wrap;html=1;" vertex="1" parent="1">
          <mxGeometry x="748" y="1460" width="660" height="30" as="geometry" />
        </mxCell>
        <mxCell id="IzmlfqED56RzMS5ZcZuz-23" value="system&lt;br&gt;CentOS 7.xï¼ŒUbuntu &amp;gt;= 22.04, OpenEuler &amp;gt;= 22.03" style="rounded=1;whiteSpace=wrap;html=1;" vertex="1" parent="1">
          <mxGeometry x="748" y="1510" width="660" height="60" as="geometry" />
        </mxCell>
        <mxCell id="IzmlfqED56RzMS5ZcZuz-24" style="edgeStyle=orthogonalEdgeStyle;rounded=0;orthogonalLoop=1;jettySize=auto;html=1;entryX=0.122;entryY=1.02;entryDx=0;entryDy=0;exitX=0.116;exitY=0.02;exitDx=0;exitDy=0;exitPerimeter=0;entryPerimeter=0;" edge="1" parent="1" source="IzmlfqED56RzMS5ZcZuz-26" target="IzmlfqED56RzMS5ZcZuz-32">
          <mxGeometry relative="1" as="geometry" />
        </mxCell>
        <mxCell id="IzmlfqED56RzMS5ZcZuz-25" style="edgeStyle=orthogonalEdgeStyle;rounded=0;orthogonalLoop=1;jettySize=auto;html=1;exitX=0.25;exitY=1;exitDx=0;exitDy=0;" edge="1" parent="1" source="IzmlfqED56RzMS5ZcZuz-26">
          <mxGeometry relative="1" as="geometry">
            <mxPoint x="778" y="1459" as="targetPoint" />
          </mxGeometry>
        </mxCell>
        <mxCell id="IzmlfqED56RzMS5ZcZuz-26" value="Computility-Device Manager Pulgin" style="rounded=1;whiteSpace=wrap;html=1;fillColor=#CCCCFF;" vertex="1" parent="1">
          <mxGeometry x="741" y="1203" width="147" height="51" as="geometry" />
        </mxCell>
        <mxCell id="IzmlfqED56RzMS5ZcZuz-27" value="&lt;div style=&quot;text-align: left;&quot;&gt;&lt;br&gt;&lt;/div&gt;" style="rounded=1;whiteSpace=wrap;html=1;" vertex="1" parent="1">
          <mxGeometry x="1198" y="1038" width="200" height="296" as="geometry" />
        </mxCell>
        <mxCell id="IzmlfqED56RzMS5ZcZuz-28" style="edgeStyle=orthogonalEdgeStyle;rounded=0;orthogonalLoop=1;jettySize=auto;html=1;entryX=0.75;entryY=1;entryDx=0;entryDy=0;" edge="1" parent="1" source="IzmlfqED56RzMS5ZcZuz-31" target="IzmlfqED56RzMS5ZcZuz-26">
          <mxGeometry relative="1" as="geometry" />
        </mxCell>
        <mxCell id="IzmlfqED56RzMS5ZcZuz-29" style="edgeStyle=orthogonalEdgeStyle;rounded=0;orthogonalLoop=1;jettySize=auto;html=1;" edge="1" parent="1" source="IzmlfqED56RzMS5ZcZuz-31" target="IzmlfqED56RzMS5ZcZuz-47">
          <mxGeometry relative="1" as="geometry">
            <Array as="points">
              <mxPoint x="1153" y="1360" />
              <mxPoint x="1300" y="1360" />
            </Array>
          </mxGeometry>
        </mxCell>
        <mxCell id="IzmlfqED56RzMS5ZcZuz-30" style="edgeStyle=orthogonalEdgeStyle;rounded=0;orthogonalLoop=1;jettySize=auto;html=1;" edge="1" parent="1" source="IzmlfqED56RzMS5ZcZuz-31" target="IzmlfqED56RzMS5ZcZuz-60">
          <mxGeometry relative="1" as="geometry">
            <Array as="points">
              <mxPoint x="1153" y="1360" />
              <mxPoint x="1033" y="1360" />
            </Array>
          </mxGeometry>
        </mxCell>
        <mxCell id="IzmlfqED56RzMS5ZcZuz-31" value="&lt;font style=&quot;border-color: var(--border-color);&quot;&gt;&lt;font&gt;VComputility-Device Manger&lt;/font&gt;&lt;br&gt;&lt;/font&gt;" style="rounded=1;whiteSpace=wrap;html=1;fillColor=#CCCCFF;fontColor=#006600;" vertex="1" parent="1">
          <mxGeometry x="908" y="1380" width="490" height="30" as="geometry" />
        </mxCell>
        <mxCell id="IzmlfqED56RzMS5ZcZuz-32" value="&lt;font style=&quot;font-size: 14px;&quot;&gt;kubelet&lt;/font&gt;" style="rounded=1;whiteSpace=wrap;html=1;fillColor=#FFFFFF;" vertex="1" parent="1">
          <mxGeometry x="741" y="1030" width="147" height="51" as="geometry" />
        </mxCell>
        <mxCell id="IzmlfqED56RzMS5ZcZuz-33" value="Registrer" style="text;html=1;strokeColor=none;fillColor=none;align=center;verticalAlign=middle;whiteSpace=wrap;rounded=0;horizontal=0;fontSize=17;fontStyle=0" vertex="1" parent="1">
          <mxGeometry x="710" y="1111" width="60" height="68" as="geometry" />
        </mxCell>
        <mxCell id="IzmlfqED56RzMS5ZcZuz-34" style="edgeStyle=orthogonalEdgeStyle;rounded=0;orthogonalLoop=1;jettySize=auto;html=1;entryX=0.75;entryY=1;entryDx=0;entryDy=0;exitX=0.75;exitY=0;exitDx=0;exitDy=0;" edge="1" parent="1" source="IzmlfqED56RzMS5ZcZuz-26" target="IzmlfqED56RzMS5ZcZuz-32">
          <mxGeometry relative="1" as="geometry">
            <mxPoint x="778" y="1200" as="sourcePoint" />
            <mxPoint x="779" y="1102" as="targetPoint" />
          </mxGeometry>
        </mxCell>
        <mxCell id="IzmlfqED56RzMS5ZcZuz-35" style="edgeStyle=orthogonalEdgeStyle;rounded=0;orthogonalLoop=1;jettySize=auto;html=1;exitX=0.592;exitY=0.98;exitDx=0;exitDy=0;exitPerimeter=0;" edge="1" parent="1" source="IzmlfqED56RzMS5ZcZuz-32">
          <mxGeometry relative="1" as="geometry">
            <mxPoint x="861" y="1189" as="sourcePoint" />
            <mxPoint x="828" y="1200" as="targetPoint" />
          </mxGeometry>
        </mxCell>
        <mxCell id="IzmlfqED56RzMS5ZcZuz-36" value="Allocate" style="text;html=1;strokeColor=none;fillColor=none;align=center;verticalAlign=middle;whiteSpace=wrap;rounded=0;horizontal=0;fontSize=16;fontStyle=0" vertex="1" parent="1">
          <mxGeometry x="785" y="1110" width="60" height="68" as="geometry" />
        </mxCell>
        <mxCell id="IzmlfqED56RzMS5ZcZuz-37" value="AllocResponse&lt;br style=&quot;font-size: 16px;&quot;&gt;" style="text;html=1;strokeColor=none;fillColor=none;align=center;verticalAlign=middle;whiteSpace=wrap;rounded=0;horizontal=0;fontSize=16;fontStyle=0" vertex="1" parent="1">
          <mxGeometry x="838" y="1090" width="60" height="110" as="geometry" />
        </mxCell>
        <mxCell id="IzmlfqED56RzMS5ZcZuz-38" value="Driver" style="rounded=1;whiteSpace=wrap;html=1;" vertex="1" parent="1">
          <mxGeometry x="860" y="1440" width="500" height="20" as="geometry" />
        </mxCell>
        <mxCell id="IzmlfqED56RzMS5ZcZuz-39" value="App" style="rounded=1;whiteSpace=wrap;html=1;" vertex="1" parent="1">
          <mxGeometry x="1225" y="1129" width="150" height="26" as="geometry" />
        </mxCell>
        <mxCell id="IzmlfqED56RzMS5ZcZuz-40" style="edgeStyle=orthogonalEdgeStyle;rounded=0;orthogonalLoop=1;jettySize=auto;html=1;exitX=0.626;exitY=0.98;exitDx=0;exitDy=0;entryX=0;entryY=0.5;entryDx=0;entryDy=0;exitPerimeter=0;" edge="1" parent="1" source="IzmlfqED56RzMS5ZcZuz-26" target="IzmlfqED56RzMS5ZcZuz-31">
          <mxGeometry relative="1" as="geometry">
            <mxPoint x="838" y="1090" as="sourcePoint" />
            <mxPoint x="838" y="1210" as="targetPoint" />
          </mxGeometry>
        </mxCell>
        <mxCell id="IzmlfqED56RzMS5ZcZuz-41" value="Request" style="text;html=1;strokeColor=none;fillColor=none;align=center;verticalAlign=middle;whiteSpace=wrap;rounded=0;horizontal=0;fontSize=16;fontStyle=0" vertex="1" parent="1">
          <mxGeometry x="790" y="1274" width="60" height="68" as="geometry" />
        </mxCell>
        <mxCell id="IzmlfqED56RzMS5ZcZuz-42" value="Response" style="text;html=1;strokeColor=none;fillColor=none;align=center;verticalAlign=middle;whiteSpace=wrap;rounded=0;horizontal=0;fontSize=16;fontStyle=0" vertex="1" parent="1">
          <mxGeometry x="838" y="1274" width="60" height="68" as="geometry" />
        </mxCell>
        <mxCell id="IzmlfqED56RzMS5ZcZuz-43" value="&lt;font style=&quot;font-size: 14px;&quot;&gt;Worker Node&amp;nbsp; label = navidia-enable&lt;/font&gt;" style="text;html=1;strokeColor=none;fillColor=none;align=center;verticalAlign=middle;whiteSpace=wrap;rounded=0;" vertex="1" parent="1">
          <mxGeometry x="898" y="970" width="300" height="30" as="geometry" />
        </mxCell>
        <mxCell id="IzmlfqED56RzMS5ZcZuz-44" value="Public API" style="rounded=1;whiteSpace=wrap;html=1;" vertex="1" parent="1">
          <mxGeometry x="1225" y="1176" width="150" height="20" as="geometry" />
        </mxCell>
        <mxCell id="IzmlfqED56RzMS5ZcZuz-45" value="User-mode Library" style="rounded=1;whiteSpace=wrap;html=1;" vertex="1" parent="1">
          <mxGeometry x="1225" y="1192" width="150" height="20" as="geometry" />
        </mxCell>
        <mxCell id="IzmlfqED56RzMS5ZcZuz-46" value="" style="group" vertex="1" connectable="0" parent="1">
          <mxGeometry x="1225" y="1238" width="150" height="90" as="geometry" />
        </mxCell>
        <mxCell id="IzmlfqED56RzMS5ZcZuz-47" value="&lt;font color=&quot;#00cc00&quot;&gt;&lt;br&gt;&lt;br&gt;&lt;br&gt;&lt;br&gt;VDevice&lt;br&gt;&lt;br&gt;&lt;br&gt;&lt;br&gt;&lt;br&gt;&lt;br&gt;&lt;br&gt;&lt;/font&gt;&lt;div style=&quot;text-align: left;&quot;&gt;&lt;br&gt;&lt;/div&gt;" style="rounded=1;whiteSpace=wrap;html=1;container=0;" vertex="1" parent="IzmlfqED56RzMS5ZcZuz-46">
          <mxGeometry width="150" height="90" as="geometry" />
        </mxCell>
        <mxCell id="IzmlfqED56RzMS5ZcZuz-48" value="HOOK" style="rounded=1;whiteSpace=wrap;html=1;container=0;" vertex="1" parent="IzmlfqED56RzMS5ZcZuz-46">
          <mxGeometry x="13" y="40" width="124" height="22.3" as="geometry" />
        </mxCell>
        <mxCell id="IzmlfqED56RzMS5ZcZuz-49" value="ALGorithm" style="rounded=1;whiteSpace=wrap;html=1;container=0;" vertex="1" parent="IzmlfqED56RzMS5ZcZuz-46">
          <mxGeometry x="13" y="62.31" width="124" height="17.69" as="geometry" />
        </mxCell>
        <mxCell id="IzmlfqED56RzMS5ZcZuz-50" value="App&lt;br&gt;&lt;br&gt;" style="rounded=1;whiteSpace=wrap;html=1;" vertex="1" parent="1">
          <mxGeometry x="300" y="1900" width="145" height="90" as="geometry" />
        </mxCell>
        <mxCell id="IzmlfqED56RzMS5ZcZuz-51" value="Public API" style="rounded=1;whiteSpace=wrap;html=1;" vertex="1" parent="1">
          <mxGeometry x="400" y="2028" width="150" height="20" as="geometry" />
        </mxCell>
        <mxCell id="IzmlfqED56RzMS5ZcZuz-52" value="User-mode Library" style="rounded=1;whiteSpace=wrap;html=1;" vertex="1" parent="1">
          <mxGeometry x="400" y="2050" width="150" height="20" as="geometry" />
        </mxCell>
        <mxCell id="IzmlfqED56RzMS5ZcZuz-53" value="" style="endArrow=classic;html=1;rounded=0;exitX=0.5;exitY=1;exitDx=0;exitDy=0;entryX=0.5;entryY=0;entryDx=0;entryDy=0;" edge="1" parent="1" source="IzmlfqED56RzMS5ZcZuz-39" target="IzmlfqED56RzMS5ZcZuz-44">
          <mxGeometry width="50" height="50" relative="1" as="geometry">
            <mxPoint x="1455" y="1148" as="sourcePoint" />
            <mxPoint x="1505" y="1098" as="targetPoint" />
          </mxGeometry>
        </mxCell>
        <mxCell id="IzmlfqED56RzMS5ZcZuz-54" value="" style="endArrow=classic;html=1;rounded=0;exitX=0.5;exitY=1;exitDx=0;exitDy=0;entryX=0.5;entryY=0;entryDx=0;entryDy=0;" edge="1" parent="1" source="IzmlfqED56RzMS5ZcZuz-45" target="IzmlfqED56RzMS5ZcZuz-47">
          <mxGeometry width="50" height="50" relative="1" as="geometry">
            <mxPoint x="1310" y="1165" as="sourcePoint" />
            <mxPoint x="1310" y="1186" as="targetPoint" />
          </mxGeometry>
        </mxCell>
        <mxCell id="IzmlfqED56RzMS5ZcZuz-55" value="runc/containerd/isula/&lt;br style=&quot;font-size: 14px;&quot;&gt;Dockerå®¹å™¨" style="text;html=1;strokeColor=none;fillColor=none;align=center;verticalAlign=middle;whiteSpace=wrap;rounded=0;fontSize=14;" vertex="1" parent="1">
          <mxGeometry x="948" y="1030" width="170" height="70" as="geometry" />
        </mxCell>
        <mxCell id="IzmlfqED56RzMS5ZcZuz-56" value="App" style="rounded=1;whiteSpace=wrap;html=1;" vertex="1" parent="1">
          <mxGeometry x="958" y="1129" width="150" height="26" as="geometry" />
        </mxCell>
        <mxCell id="IzmlfqED56RzMS5ZcZuz-57" value="Public API" style="rounded=1;whiteSpace=wrap;html=1;" vertex="1" parent="1">
          <mxGeometry x="958" y="1176" width="150" height="20" as="geometry" />
        </mxCell>
        <mxCell id="IzmlfqED56RzMS5ZcZuz-58" value="User-mode Library" style="rounded=1;whiteSpace=wrap;html=1;" vertex="1" parent="1">
          <mxGeometry x="958" y="1192" width="150" height="20" as="geometry" />
        </mxCell>
        <mxCell id="IzmlfqED56RzMS5ZcZuz-59" value="" style="group" vertex="1" connectable="0" parent="1">
          <mxGeometry x="958" y="1238" width="150" height="90" as="geometry" />
        </mxCell>
        <mxCell id="IzmlfqED56RzMS5ZcZuz-60" value="&lt;font color=&quot;#00cc00&quot;&gt;&lt;br&gt;&lt;br&gt;&lt;br&gt;&lt;br&gt;VDevice&lt;br&gt;&lt;br&gt;&lt;br&gt;&lt;br&gt;&lt;br&gt;&lt;br&gt;&lt;br&gt;&lt;/font&gt;&lt;div style=&quot;text-align: left;&quot;&gt;&lt;br&gt;&lt;/div&gt;" style="rounded=1;whiteSpace=wrap;html=1;container=0;" vertex="1" parent="IzmlfqED56RzMS5ZcZuz-59">
          <mxGeometry width="150" height="90" as="geometry" />
        </mxCell>
        <mxCell id="IzmlfqED56RzMS5ZcZuz-61" value="HOOK" style="rounded=1;whiteSpace=wrap;html=1;container=0;" vertex="1" parent="IzmlfqED56RzMS5ZcZuz-59">
          <mxGeometry x="13" y="40" width="124" height="22.3" as="geometry" />
        </mxCell>
        <mxCell id="IzmlfqED56RzMS5ZcZuz-62" value="ALGorithm" style="rounded=1;whiteSpace=wrap;html=1;container=0;" vertex="1" parent="IzmlfqED56RzMS5ZcZuz-59">
          <mxGeometry x="13" y="62.31" width="124" height="17.69" as="geometry" />
        </mxCell>
        <mxCell id="IzmlfqED56RzMS5ZcZuz-63" value="" style="endArrow=classic;html=1;rounded=0;exitX=0.5;exitY=1;exitDx=0;exitDy=0;entryX=0.5;entryY=0;entryDx=0;entryDy=0;" edge="1" parent="1" source="IzmlfqED56RzMS5ZcZuz-56" target="IzmlfqED56RzMS5ZcZuz-57">
          <mxGeometry width="50" height="50" relative="1" as="geometry">
            <mxPoint x="1188" y="1148" as="sourcePoint" />
            <mxPoint x="1238" y="1098" as="targetPoint" />
          </mxGeometry>
        </mxCell>
        <mxCell id="IzmlfqED56RzMS5ZcZuz-64" value="" style="endArrow=classic;html=1;rounded=0;exitX=0.5;exitY=1;exitDx=0;exitDy=0;entryX=0.5;entryY=0;entryDx=0;entryDy=0;" edge="1" parent="1" source="IzmlfqED56RzMS5ZcZuz-58" target="IzmlfqED56RzMS5ZcZuz-60">
          <mxGeometry width="50" height="50" relative="1" as="geometry">
            <mxPoint x="1043" y="1165" as="sourcePoint" />
            <mxPoint x="1043" y="1186" as="targetPoint" />
          </mxGeometry>
        </mxCell>
        <mxCell id="IzmlfqED56RzMS5ZcZuz-65" value="create/update/monitor" style="text;html=1;strokeColor=none;fillColor=none;align=center;verticalAlign=middle;whiteSpace=wrap;rounded=0;fontSize=14;" vertex="1" parent="1">
          <mxGeometry x="1078" y="1330" width="160" height="30" as="geometry" />
        </mxCell>
        <mxCell id="IzmlfqED56RzMS5ZcZuz-66" value="Windowsè™šæ‹Ÿæœº&lt;br&gt;/KVMè™šæ‹Ÿæœº" style="text;html=1;strokeColor=none;fillColor=none;align=center;verticalAlign=middle;whiteSpace=wrap;rounded=0;fontSize=14;" vertex="1" parent="1">
          <mxGeometry x="1213" y="1030" width="170" height="70" as="geometry" />
        </mxCell>
        <mxCell id="IzmlfqED56RzMS5ZcZuz-67" style="edgeStyle=orthogonalEdgeStyle;rounded=0;orthogonalLoop=1;jettySize=auto;html=1;exitX=0.25;exitY=1;exitDx=0;exitDy=0;dashed=1;" edge="1" parent="1" source="IzmlfqED56RzMS5ZcZuz-2">
          <mxGeometry relative="1" as="geometry">
            <mxPoint x="983" y="1440" as="targetPoint" />
          </mxGeometry>
        </mxCell>
        <mxCell id="IzmlfqED56RzMS5ZcZuz-68" style="edgeStyle=orthogonalEdgeStyle;rounded=0;orthogonalLoop=1;jettySize=auto;html=1;dashed=1;entryX=0.938;entryY=-0.1;entryDx=0;entryDy=0;entryPerimeter=0;" edge="1" parent="1" target="IzmlfqED56RzMS5ZcZuz-38">
          <mxGeometry relative="1" as="geometry">
            <mxPoint x="1329" y="1330" as="sourcePoint" />
            <mxPoint x="993" y="1450" as="targetPoint" />
          </mxGeometry>
        </mxCell>
      </root>
    </mxGraphModel>
  </diagram>
</mxfile>
